<svg width="7" height="17" viewBox="0 0 7 17" fill="none" xmlns="http://www.w3.org/2000/svg">
<path d="M6.804 5.7726L0.391873 6.30911L0.162269 7.01946L1.42229 7.17462C2.24551 7.30548 2.40791 7.50363 2.22871 8.05135L0.162269 14.5343C-0.380941 16.2111 0.456275 17 2.42471 17C3.95074 17 5.72318 16.5289 6.52679 15.8821L6.77319 15.1045C6.21318 15.4335 5.39557 15.5643 4.85236 15.5643C4.08234 15.5643 3.80234 15.2035 4.00114 14.568L6.804 5.7726ZM7 1.86936C7 2.36515 6.70499 2.84063 6.17988 3.1912C5.65477 3.54178 4.94257 3.73873 4.19995 3.73873C3.45733 3.73873 2.74512 3.54178 2.22001 3.1912C1.6949 2.84063 1.39989 2.36515 1.39989 1.86936C1.39989 1.37358 1.6949 0.898098 2.22001 0.547524C2.74512 0.19695 3.45733 0 4.19995 0C4.94257 0 5.65477 0.19695 6.17988 0.547524C6.70499 0.898098 7 1.37358 7 1.86936Z" fill="#218CD5"/>
</svg>
